<?xml version="1.0" standalone="no"?>
<!DOCTYPE svg PUBLIC "-//W3C//DTD SVG 20010904//EN"
 "http://www.w3.org/TR/2001/REC-SVG-20010904/DTD/svg10.dtd">
<svg version="1.0" xmlns="http://www.w3.org/2000/svg"
 width="16.000000pt" height="16.000000pt" viewBox="0 0 16.000000 16.000000"
 preserveAspectRatio="xMidYMid meet">

<g transform="translate(0.000000,16.000000) scale(0.100000,-0.100000)"
fill="#000000" stroke="none">
<path d="M25 135 c-50 -49 -15 -135 55 -135 41 0 80 39 80 80 0 41 -39 80 -80
80 -19 0 -40 -9 -55 -25z m10 -54 c0 -16 -3 -27 -7 -24 -13 7 -7 53 6 53 1 0
1 -13 1 -29z m69 14 c-4 -8 -8 -15 -10 -15 -2 0 -4 7 -4 15 0 8 4 15 10 15 5
0 7 -7 4 -15z m36 5 c0 -5 -2 -10 -4 -10 -3 0 -8 5 -11 10 -3 6 -1 10 4 10 6
0 11 -4 11 -10z m-60 -29 c0 -6 -5 -13 -12 -17 -6 -4 -8 -3 -4 4 3 5 0 13 -6
15 -8 3 -6 6 5 6 9 1 17 -3 17 -8z m47 -10 c9 8 13 8 13 1 0 -13 -21 -21 -37
-14 -7 2 -13 9 -13 15 0 8 4 7 12 -1 8 -8 15 -9 25 -1z"/>
</g>
</svg>
